<svg width="22" height="22" viewBox="0 0 22 22" fill="none" xmlns="http://www.w3.org/2000/svg">
<path d="M14.9286 -1.84167e-07C16.804 -1.02188e-07 18.6027 0.745023 19.9288 2.07117C21.255 3.39732 22 5.19597 22 7.07143L22 14.1429C22 15.5446 21.3871 16.8033 20.4176 17.6676C20.4251 17.5404 20.4288 17.4131 20.4286 17.2857L20.4286 7.07143C20.4286 5.61274 19.8491 4.21379 18.8177 3.18234C17.7862 2.15089 16.3873 1.57143 14.9286 1.57143L4.71428 1.57143C4.58752 1.57143 4.46024 1.57509 4.33243 1.58243C4.77484 1.08467 5.3177 0.686296 5.92523 0.413542C6.53276 0.140789 7.19119 -0.000153831 7.85714 -4.93269e-07L14.9286 -1.84167e-07ZM18.8571 7.85714C18.8571 6.60684 18.3605 5.40774 17.4764 4.52364C16.5923 3.63954 15.3932 3.14286 14.1429 3.14286L4.71428 3.14286C3.46398 3.14286 2.26488 3.63954 1.38078 4.52364C0.496681 5.40774 -2.88794e-07 6.60684 -3.43447e-07 7.85714L-7.55583e-07 17.2857C-8.10235e-07 18.536 0.49668 19.7351 1.38078 20.6192C2.26488 21.5033 3.46398 22 4.71428 22L14.1429 22C15.3932 22 16.5923 21.5033 17.4764 20.6192C18.3605 19.7351 18.8571 18.536 18.8571 17.2857L18.8571 7.85714Z" fill="#1E3050"/>
</svg>
